<?xml version="1.0" encoding="iso-8859-1"?>
<!-- Generator: Adobe Illustrator 18.0.0, SVG Export Plug-In . SVG Version: 6.00 Build 0)  -->
<!DOCTYPE svg PUBLIC "-//W3C//DTD SVG 1.1//EN" "http://www.w3.org/Graphics/SVG/1.1/DTD/svg11.dtd">
<svg version="1.1" id="Capa_1" xmlns="http://www.w3.org/2000/svg" xmlns:xlink="http://www.w3.org/1999/xlink" x="0px" y="0px"
	 viewBox="0 0 453.049 453.049" style="enable-background:new 0 0 453.049 453.049;" xml:space="preserve">
<g>
	<g id="XMLID_3_">
		<g>
			<path style="fill:#EABD7D;" d="M126.477,220.944v67.97c0,30.67-24.95,55.61-55.62,55.61c-30.66,0-55.61-24.94-55.61-55.61v-67.97
				c0-30.66,24.95-55.61,55.61-55.61C101.527,165.334,126.477,190.284,126.477,220.944z M115.577,288.914v-45.32
				c0-4.14-3.35-7.5-7.5-7.5c-4.14,0-7.5,3.36-7.5,7.5v45.32c0,16.39-13.33,29.72-29.71,29.72c-16.39,0-29.72-13.33-29.72-29.72
				v-35.97c0-4.14-3.36-7.5-7.5-7.5c-4.15,0-7.5,3.36-7.5,7.5v35.97c0,24.66,20.06,44.72,44.72,44.72
				C95.517,333.634,115.577,313.574,115.577,288.914z M108.827,220.164c4.04-0.9,6.59-4.91,5.69-8.95
				c-4.52-20.27-22.88-34.99-43.66-34.99c-24.65,0-44.71,20.07-44.71,44.72v8.26c0,4.15,3.35,7.5,7.5,7.5c4.14,0,7.5-3.35,7.5-7.5
				v-8.26c0-16.38,13.33-29.72,29.71-29.72c13.81,0,26.01,9.78,29.01,23.25C100.777,218.514,104.777,221.064,108.827,220.164z
				 M89.687,265.174v-44.23c0-10.38-8.45-18.82-18.83-18.82c-10.37,0-18.82,8.44-18.82,18.82v67.97c0,10.38,8.45,18.83,18.83,18.83
				s18.82-8.45,18.82-18.83c0-4.14-3.36-7.5-7.5-7.5c-4.14,0-7.5,3.36-7.5,7.5c0,2.11-1.72,3.83-3.82,3.83
				c-2.11,0-3.83-1.72-3.83-3.83v-67.97c0-2.11,1.72-3.82,3.82-3.82c2.11,0,3.83,1.71,3.83,3.82v44.23c0,4.14,3.36,7.5,7.5,7.5
				C86.327,272.674,89.687,269.314,89.687,265.174z"/>
			<path style="fill:#E29E30;" d="M437.797,220.944v67.97c0,30.67-24.94,55.62-55.6,55.62h-267.9
				c16.52-12.94,27.18-33.05,27.18-55.62v-67.97c0-22.56-10.65-42.67-27.17-55.61h71.57l3.04,13.4c0.79,3.48,3.88,5.84,7.31,5.84
				c0.55,0,1.11-0.06,1.67-0.19c4.04-0.91,6.57-4.93,5.65-8.97l-12.67-55.77l30.13-9.4l27.65,68.89c1.55,3.85,5.92,5.71,9.76,4.17
				c3.84-1.54,5.71-5.91,4.16-9.75l-3.29-8.22h122.91C412.857,165.334,437.797,190.284,437.797,220.944z M413.967,218.124
				c0-4.15-3.36-7.5-7.5-7.5h-27.51c-4.15,0-7.5,3.35-7.5,7.5c0,4.14,3.35,7.5,7.5,7.5h27.51
				C410.607,225.624,413.967,222.264,413.967,218.124z M413.967,254.934c0-4.14-3.36-7.5-7.5-7.5h-166.69c-4.14,0-7.5,3.36-7.5,7.5
				s3.36,7.5,7.5,7.5h166.69C410.607,262.434,413.967,259.074,413.967,254.934z M413.967,291.754c0-4.15-3.36-7.5-7.5-7.5h-38.84
				c-4.14,0-7.5,3.35-7.5,7.5c0,4.14,3.36,7.5,7.5,7.5h38.84C410.607,299.254,413.967,295.894,413.967,291.754z M392.927,181.304
				c0-4.14-3.36-7.5-7.5-7.5h-101.95c-4.14,0-7.5,3.36-7.5,7.5s3.36,7.5,7.5,7.5h101.95
				C389.567,188.804,392.927,185.444,392.927,181.304z M392.927,328.564c0-4.14-3.36-7.5-7.5-7.5h-14.57c-4.14,0-7.5,3.36-7.5,7.5
				c0,4.14,3.36,7.5,7.5,7.5h14.57C389.567,336.064,392.927,332.704,392.927,328.564z M342.757,218.124c0-4.15-3.35-7.5-7.5-7.5
				h-163.44c-4.15,0-7.5,3.35-7.5,7.5c0,4.14,3.35,7.5,7.5,7.5h163.44C339.407,225.624,342.757,222.264,342.757,218.124z
				 M341.137,328.564c0-4.14-3.35-7.5-7.5-7.5h-98.71c-4.14,0-7.5,3.36-7.5,7.5c0,4.14,3.36,7.5,7.5,7.5h98.71
				C337.787,336.064,341.137,332.704,341.137,328.564z M316.867,291.754c0-4.15-3.36-7.5-7.5-7.5h-129.46c-4.14,0-7.5,3.35-7.5,7.5
				c0,4.14,3.36,7.5,7.5,7.5h129.46C313.507,299.254,316.867,295.894,316.867,291.754z M213.297,254.934c0-4.14-3.36-7.5-7.5-7.5
				h-33.98c-4.15,0-7.5,3.36-7.5,7.5s3.35,7.5,7.5,7.5h33.98C209.937,262.434,213.297,259.074,213.297,254.934z M203.587,328.564
				c0-4.14-3.36-7.5-7.5-7.5h-45.31c-4.14,0-7.5,3.36-7.5,7.5c0,4.14,3.36,7.5,7.5,7.5h45.31
				C200.227,336.064,203.587,332.704,203.587,328.564z"/>
			<path style="fill:#4D4D4D;" d="M452.797,220.944v67.97c0,38.94-31.67,70.62-70.6,70.62l-311.43-0.01
				c-38.89-0.05-70.52-31.7-70.52-70.61v-67.97c0-38.93,31.68-70.61,70.61-70.61c0.06,0,111.61,0,111.61,0l-7.75-34.12
				c-0.87-3.82,1.34-7.66,5.08-8.82l43.36-13.53c3.72-1.17,7.73,0.73,9.19,4.36l20.92,52.11h128.93
				C421.127,150.334,452.797,182.014,452.797,220.944z M437.797,288.914v-67.97c0-30.66-24.94-55.61-55.6-55.61h-122.91l3.29,8.22
				c1.55,3.84-0.32,8.21-4.16,9.75c-3.84,1.54-8.21-0.32-9.76-4.17l-27.65-68.89l-30.13,9.4l12.67,55.77
				c0.92,4.04-1.61,8.06-5.65,8.97c-0.56,0.13-1.12,0.19-1.67,0.19c-3.43,0-6.52-2.36-7.31-5.84l-3.04-13.4h-71.57
				c16.52,12.94,27.17,33.05,27.17,55.61v67.97c0,22.57-10.66,42.68-27.18,55.62h267.9
				C412.857,344.534,437.797,319.584,437.797,288.914z M126.477,288.914v-67.97c0-30.66-24.95-55.61-55.62-55.61
				c-30.66,0-55.61,24.95-55.61,55.61v67.97c0,30.67,24.95,55.61,55.61,55.61C101.527,344.524,126.477,319.584,126.477,288.914z"/>
			<path style="fill:#4D4D4D;" d="M406.467,210.624c4.14,0,7.5,3.35,7.5,7.5c0,4.14-3.36,7.5-7.5,7.5h-27.51
				c-4.15,0-7.5-3.36-7.5-7.5c0-4.15,3.35-7.5,7.5-7.5H406.467z"/>
			<path style="fill:#4D4D4D;" d="M406.467,247.434c4.14,0,7.5,3.36,7.5,7.5s-3.36,7.5-7.5,7.5h-166.69c-4.14,0-7.5-3.36-7.5-7.5
				s3.36-7.5,7.5-7.5H406.467z"/>
			<path style="fill:#4D4D4D;" d="M406.467,284.254c4.14,0,7.5,3.35,7.5,7.5c0,4.14-3.36,7.5-7.5,7.5h-38.84
				c-4.14,0-7.5-3.36-7.5-7.5c0-4.15,3.36-7.5,7.5-7.5H406.467z"/>
			<path style="fill:#4D4D4D;" d="M385.427,173.804c4.14,0,7.5,3.36,7.5,7.5s-3.36,7.5-7.5,7.5h-101.95c-4.14,0-7.5-3.36-7.5-7.5
				s3.36-7.5,7.5-7.5H385.427z"/>
			<path style="fill:#4D4D4D;" d="M385.427,321.064c4.14,0,7.5,3.36,7.5,7.5c0,4.14-3.36,7.5-7.5,7.5h-14.57
				c-4.14,0-7.5-3.36-7.5-7.5c0-4.14,3.36-7.5,7.5-7.5H385.427z"/>
			<path style="fill:#4D4D4D;" d="M335.257,210.624c4.15,0,7.5,3.35,7.5,7.5c0,4.14-3.35,7.5-7.5,7.5h-163.44
				c-4.15,0-7.5-3.36-7.5-7.5c0-4.15,3.35-7.5,7.5-7.5H335.257z"/>
			<path style="fill:#4D4D4D;" d="M333.637,321.064c4.15,0,7.5,3.36,7.5,7.5c0,4.14-3.35,7.5-7.5,7.5h-98.71
				c-4.14,0-7.5-3.36-7.5-7.5c0-4.14,3.36-7.5,7.5-7.5H333.637z"/>
			<path style="fill:#4D4D4D;" d="M309.367,284.254c4.14,0,7.5,3.35,7.5,7.5c0,4.14-3.36,7.5-7.5,7.5h-129.46
				c-4.14,0-7.5-3.36-7.5-7.5c0-4.15,3.36-7.5,7.5-7.5H309.367z"/>
			<path style="fill:#4D4D4D;" d="M205.797,247.434c4.14,0,7.5,3.36,7.5,7.5s-3.36,7.5-7.5,7.5h-33.98c-4.15,0-7.5-3.36-7.5-7.5
				s3.35-7.5,7.5-7.5H205.797z"/>
			<path style="fill:#4D4D4D;" d="M196.087,321.064c4.14,0,7.5,3.36,7.5,7.5c0,4.14-3.36,7.5-7.5,7.5h-45.31
				c-4.14,0-7.5-3.36-7.5-7.5c0-4.14,3.36-7.5,7.5-7.5H196.087z"/>
			<path style="fill:#4D4D4D;" d="M115.577,243.594v45.32c0,24.66-20.06,44.72-44.71,44.72c-24.66,0-44.72-20.06-44.72-44.72v-35.97
				c0-4.14,3.35-7.5,7.5-7.5c4.14,0,7.5,3.36,7.5,7.5v35.97c0,16.39,13.33,29.72,29.72,29.72c16.38,0,29.71-13.33,29.71-29.72
				v-45.32c0-4.14,3.36-7.5,7.5-7.5C112.227,236.094,115.577,239.454,115.577,243.594z"/>
			<path style="fill:#4D4D4D;" d="M114.517,211.214c0.9,4.04-1.65,8.05-5.69,8.95c-4.05,0.9-8.05-1.65-8.96-5.69
				c-3-13.47-15.2-23.25-29.01-23.25c-16.38,0-29.71,13.34-29.71,29.72v8.26c0,4.15-3.36,7.5-7.5,7.5c-4.15,0-7.5-3.35-7.5-7.5
				v-8.26c0-24.65,20.06-44.72,44.71-44.72C91.637,176.224,109.997,190.944,114.517,211.214z"/>
			<path style="fill:#4D4D4D;" d="M89.687,220.944v44.23c0,4.14-3.36,7.5-7.5,7.5c-4.14,0-7.5-3.36-7.5-7.5v-44.23
				c0-2.11-1.72-3.82-3.83-3.82c-2.1,0-3.82,1.71-3.82,3.82v67.97c0,2.11,1.72,3.83,3.83,3.83c2.1,0,3.82-1.72,3.82-3.83
				c0-4.14,3.36-7.5,7.5-7.5c4.14,0,7.5,3.36,7.5,7.5c0,10.38-8.44,18.83-18.82,18.83s-18.83-8.45-18.83-18.83v-67.97
				c0-10.38,8.45-18.82,18.82-18.82C81.237,202.124,89.687,210.564,89.687,220.944z"/>
		</g>
		<g>
		</g>
	</g>
</g>
<g>
</g>
<g>
</g>
<g>
</g>
<g>
</g>
<g>
</g>
<g>
</g>
<g>
</g>
<g>
</g>
<g>
</g>
<g>
</g>
<g>
</g>
<g>
</g>
<g>
</g>
<g>
</g>
<g>
</g>
</svg>
